<svg xmlns="http://www.w3.org/2000/svg" viewBox="68.44 195.7 211.13 202.24">
  <path d="M 165.407 199.321 C 171.137 195.158 176.867 195.158 182.597 199.321 L 272.847 264.891 C 278.577 269.054 280.348 274.504 278.159 281.24 L 243.687 387.335 C 241.498 394.071 236.862 397.439 229.779 397.439 L 118.225 397.439 C 111.142 397.439 106.506 394.071 104.317 387.335 L 69.845 281.24 C 67.656 274.504 69.427 269.054 75.157 264.891 Z M 90.894 272.619 C 86.076 276.082 84.587 280.615 86.427 286.218 L 115.411 374.471 C 117.252 380.074 121.15 382.876 127.105 382.876 L 220.899 382.876 C 226.854 382.876 230.752 380.074 232.593 374.471 L 261.577 286.218 C 263.417 280.615 261.928 276.082 257.11 272.619 L 181.229 218.076 C 176.411 214.613 171.593 214.613 166.775 218.076 Z" style="stroke: rgb(0, 0, 0); fill: rgb(4, 0, 84);"/>
  <text style="fill: rgb(0, 8, 81); font-family: Arial, sans-serif; font-size: 21.4px; white-space: pre;" y="3" x="0"><tspan x="122.376" y="357.297" style="font-size: 155.2px; word-spacing: 0px;">A</tspan><tspan style="font-size: 148.5px; word-spacing: 0px;">
</tspan></text>
</svg>